<mxfile host="app.diagrams.net" modified="2020-04-11T10:10:07.942Z" agent="5.0 (X11)" etag="qhNnXl68h0DYi5LE7wT1" version="12.9.11" type="github" pages="3">
  <diagram id="vwBpfIJJqrl7qLxSZMjy" name="VGZ">
    <mxGraphModel dx="1422" dy="776" grid="0" gridSize="10" guides="1" tooltips="1" connect="1" arrows="1" fold="1" page="1" pageScale="1" pageWidth="827" pageHeight="1169" background="#FFFFFF" math="0" shadow="0">
      <root>
        <mxCell id="0" />
        <mxCell id="1" parent="0" />
        <mxCell id="2dIn2ky05wLc2S2Yu5g8-7" style="edgeStyle=orthogonalEdgeStyle;rounded=0;jumpStyle=arc;orthogonalLoop=1;jettySize=auto;html=1;exitX=0.7;exitY=1;exitDx=0;exitDy=0;exitPerimeter=0;entryX=0.7;entryY=0;entryDx=0;entryDy=0;entryPerimeter=0;endArrow=none;endFill=0;strokeColor=#000000;fontColor=#000000;labelBackgroundColor=none;" parent="1" source="2dIn2ky05wLc2S2Yu5g8-1" target="2dIn2ky05wLc2S2Yu5g8-2" edge="1">
          <mxGeometry relative="1" as="geometry">
            <Array as="points">
              <mxPoint x="671" y="387" />
              <mxPoint x="671" y="387" />
            </Array>
          </mxGeometry>
        </mxCell>
        <mxCell id="2dIn2ky05wLc2S2Yu5g8-21" style="edgeStyle=orthogonalEdgeStyle;rounded=0;jumpStyle=arc;orthogonalLoop=1;jettySize=auto;html=1;exitX=0.7;exitY=0;exitDx=0;exitDy=0;exitPerimeter=0;endArrow=none;endFill=0;strokeColor=#000000;fontColor=#000000;labelBackgroundColor=none;" parent="1" source="2dIn2ky05wLc2S2Yu5g8-1" target="2dIn2ky05wLc2S2Yu5g8-22" edge="1">
          <mxGeometry relative="1" as="geometry">
            <mxPoint x="674.8620689655172" y="140" as="targetPoint" />
            <Array as="points">
              <mxPoint x="671" y="180" />
              <mxPoint x="695" y="180" />
            </Array>
          </mxGeometry>
        </mxCell>
        <mxCell id="2dIn2ky05wLc2S2Yu5g8-1" value="&lt;div&gt;Q2&lt;/div&gt;&lt;div&gt;BC556&lt;br&gt;&lt;/div&gt;" style="verticalLabelPosition=bottom;shadow=0;dashed=0;align=left;html=1;verticalAlign=top;shape=mxgraph.electrical.transistors.pnp_transistor_1;strokeColor=#000000;fontColor=#000000;labelBackgroundColor=none;fillColor=none;" parent="1" vertex="1">
          <mxGeometry x="618.5" y="210" width="76" height="80" as="geometry" />
        </mxCell>
        <mxCell id="2dIn2ky05wLc2S2Yu5g8-37" style="edgeStyle=orthogonalEdgeStyle;rounded=0;jumpStyle=arc;orthogonalLoop=1;jettySize=auto;html=1;exitX=0.7;exitY=1;exitDx=0;exitDy=0;exitPerimeter=0;endArrow=none;endFill=0;strokeColor=#000000;fontColor=#000000;labelBackgroundColor=none;" parent="1" source="2dIn2ky05wLc2S2Yu5g8-1" target="2dIn2ky05wLc2S2Yu5g8-23" edge="1">
          <mxGeometry relative="1" as="geometry">
            <Array as="points">
              <mxPoint x="671" y="370" />
              <mxPoint x="709" y="370" />
              <mxPoint x="709" y="130" />
              <mxPoint x="645" y="130" />
            </Array>
          </mxGeometry>
        </mxCell>
        <mxCell id="u6N9TvEK20pb86zufqTK-22" style="edgeStyle=orthogonalEdgeStyle;rounded=0;orthogonalLoop=1;jettySize=auto;html=1;exitX=0.7;exitY=1;exitDx=0;exitDy=0;exitPerimeter=0;strokeColor=#000000;fontColor=#000000;endArrow=none;endFill=0;jumpStyle=arc;" parent="1" source="2dIn2ky05wLc2S2Yu5g8-2" target="u6N9TvEK20pb86zufqTK-24" edge="1">
          <mxGeometry relative="1" as="geometry">
            <mxPoint x="600" y="110" as="targetPoint" />
            <Array as="points">
              <mxPoint x="671" y="503" />
              <mxPoint x="726" y="503" />
              <mxPoint x="726" y="160" />
              <mxPoint x="595" y="160" />
            </Array>
          </mxGeometry>
        </mxCell>
        <mxCell id="2dIn2ky05wLc2S2Yu5g8-2" value="&lt;div align=&quot;left&quot;&gt;Q3&lt;br&gt;&lt;/div&gt;&lt;div align=&quot;left&quot;&gt;BC337&lt;/div&gt;" style="verticalLabelPosition=bottom;shadow=0;dashed=0;align=left;html=1;verticalAlign=top;shape=mxgraph.electrical.transistors.npn_transistor_1;strokeColor=#000000;fontColor=#000000;labelBackgroundColor=none;fillColor=none;" parent="1" vertex="1">
          <mxGeometry x="618.5" y="410" width="76" height="80" as="geometry" />
        </mxCell>
        <mxCell id="2dIn2ky05wLc2S2Yu5g8-6" style="edgeStyle=orthogonalEdgeStyle;rounded=0;jumpStyle=arc;orthogonalLoop=1;jettySize=auto;html=1;exitX=0.7;exitY=1;exitDx=0;exitDy=0;exitPerimeter=0;entryX=0.5;entryY=0;entryDx=0;entryDy=0;entryPerimeter=0;endArrow=none;endFill=0;strokeColor=#000000;fontColor=#000000;labelBackgroundColor=none;" parent="1" source="2dIn2ky05wLc2S2Yu5g8-3" target="2dIn2ky05wLc2S2Yu5g8-5" edge="1">
          <mxGeometry relative="1" as="geometry">
            <Array as="points">
              <mxPoint x="511" y="390" />
              <mxPoint x="583" y="390" />
            </Array>
          </mxGeometry>
        </mxCell>
        <mxCell id="2dIn2ky05wLc2S2Yu5g8-3" value="&lt;div&gt;Q1&lt;br&gt;&lt;/div&gt;&lt;div&gt;BC337&lt;/div&gt;" style="verticalLabelPosition=bottom;shadow=0;dashed=0;align=left;html=1;verticalAlign=top;shape=mxgraph.electrical.transistors.npn_transistor_1;strokeColor=#000000;fontColor=#000000;labelBackgroundColor=none;fillColor=none;" parent="1" vertex="1">
          <mxGeometry x="458" y="290" width="76" height="80" as="geometry" />
        </mxCell>
        <mxCell id="2dIn2ky05wLc2S2Yu5g8-5" value="" style="pointerEvents=1;verticalLabelPosition=bottom;shadow=0;dashed=0;align=center;html=1;verticalAlign=top;shape=mxgraph.electrical.signal_sources.protective_earth;strokeColor=#000000;fontColor=#000000;labelBackgroundColor=none;" parent="1" vertex="1">
          <mxGeometry x="570" y="410" width="25" height="20" as="geometry" />
        </mxCell>
        <mxCell id="2dIn2ky05wLc2S2Yu5g8-11" style="edgeStyle=orthogonalEdgeStyle;rounded=0;jumpStyle=arc;orthogonalLoop=1;jettySize=auto;html=1;exitX=1;exitY=0.5;exitDx=0;exitDy=0;exitPerimeter=0;entryX=0;entryY=0.5;entryDx=0;entryDy=0;entryPerimeter=0;endArrow=none;endFill=0;strokeColor=#000000;fontColor=#000000;labelBackgroundColor=none;" parent="1" source="2dIn2ky05wLc2S2Yu5g8-10" target="2dIn2ky05wLc2S2Yu5g8-1" edge="1">
          <mxGeometry relative="1" as="geometry">
            <Array as="points">
              <mxPoint x="609" y="250" />
            </Array>
          </mxGeometry>
        </mxCell>
        <mxCell id="2dIn2ky05wLc2S2Yu5g8-12" style="edgeStyle=orthogonalEdgeStyle;rounded=0;jumpStyle=arc;orthogonalLoop=1;jettySize=auto;html=1;exitX=0;exitY=0.5;exitDx=0;exitDy=0;exitPerimeter=0;entryX=0.7;entryY=0;entryDx=0;entryDy=0;entryPerimeter=0;endArrow=none;endFill=0;strokeColor=#000000;fontColor=#000000;labelBackgroundColor=none;" parent="1" source="2dIn2ky05wLc2S2Yu5g8-10" target="2dIn2ky05wLc2S2Yu5g8-3" edge="1">
          <mxGeometry relative="1" as="geometry">
            <Array as="points">
              <mxPoint x="511" y="250" />
              <mxPoint x="511" y="290" />
            </Array>
          </mxGeometry>
        </mxCell>
        <mxCell id="2dIn2ky05wLc2S2Yu5g8-10" value="&lt;div&gt;R1&lt;/div&gt;&lt;div&gt;3.3k&lt;/div&gt;" style="pointerEvents=1;verticalLabelPosition=bottom;shadow=0;dashed=0;align=center;html=1;verticalAlign=top;shape=mxgraph.electrical.resistors.resistor_2;strokeColor=#000000;fontColor=#000000;labelBackgroundColor=none;" parent="1" vertex="1">
          <mxGeometry x="518.5" y="240" width="100" height="20" as="geometry" />
        </mxCell>
        <mxCell id="2dIn2ky05wLc2S2Yu5g8-14" style="edgeStyle=orthogonalEdgeStyle;rounded=0;jumpStyle=arc;orthogonalLoop=1;jettySize=auto;html=1;exitX=1;exitY=0.5;exitDx=0;exitDy=0;exitPerimeter=0;entryX=0;entryY=0.5;entryDx=0;entryDy=0;entryPerimeter=0;endArrow=none;endFill=0;strokeColor=#000000;fontColor=#000000;labelBackgroundColor=none;" parent="1" source="2dIn2ky05wLc2S2Yu5g8-13" target="2dIn2ky05wLc2S2Yu5g8-3" edge="1">
          <mxGeometry relative="1" as="geometry" />
        </mxCell>
        <mxCell id="2dIn2ky05wLc2S2Yu5g8-18" style="edgeStyle=orthogonalEdgeStyle;rounded=0;jumpStyle=arc;orthogonalLoop=1;jettySize=auto;html=1;exitX=0;exitY=0.5;exitDx=0;exitDy=0;exitPerimeter=0;endArrow=none;endFill=0;strokeColor=#000000;fontColor=#000000;labelBackgroundColor=none;" parent="1" source="2dIn2ky05wLc2S2Yu5g8-13" target="2dIn2ky05wLc2S2Yu5g8-19" edge="1">
          <mxGeometry relative="1" as="geometry">
            <mxPoint x="300" y="210" as="targetPoint" />
            <Array as="points">
              <mxPoint x="430" y="540" />
            </Array>
          </mxGeometry>
        </mxCell>
        <mxCell id="2dIn2ky05wLc2S2Yu5g8-13" value="&lt;div&gt;R2&lt;/div&gt;&lt;div&gt;3.3k&lt;/div&gt;" style="pointerEvents=1;verticalLabelPosition=middle;shadow=0;dashed=0;align=center;html=1;verticalAlign=middle;shape=mxgraph.electrical.resistors.resistor_2;strokeColor=#000000;fontColor=#000000;labelBackgroundColor=none;direction=north;horizontal=1;labelPosition=left;spacingLeft=0;spacingRight=20;" parent="1" vertex="1">
          <mxGeometry x="420" y="330" width="20" height="100" as="geometry" />
        </mxCell>
        <mxCell id="2dIn2ky05wLc2S2Yu5g8-16" style="edgeStyle=orthogonalEdgeStyle;rounded=0;jumpStyle=arc;orthogonalLoop=1;jettySize=auto;html=1;exitX=1;exitY=0.5;exitDx=0;exitDy=0;exitPerimeter=0;entryX=0;entryY=0.5;entryDx=0;entryDy=0;entryPerimeter=0;endArrow=none;endFill=0;strokeColor=#000000;fontColor=#000000;labelBackgroundColor=none;" parent="1" source="2dIn2ky05wLc2S2Yu5g8-15" target="2dIn2ky05wLc2S2Yu5g8-2" edge="1">
          <mxGeometry relative="1" as="geometry" />
        </mxCell>
        <mxCell id="2dIn2ky05wLc2S2Yu5g8-17" style="edgeStyle=orthogonalEdgeStyle;rounded=0;jumpStyle=arc;orthogonalLoop=1;jettySize=auto;html=1;exitX=0;exitY=0.5;exitDx=0;exitDy=0;exitPerimeter=0;endArrow=none;endFill=0;strokeColor=#000000;fontColor=#000000;labelBackgroundColor=none;" parent="1" source="2dIn2ky05wLc2S2Yu5g8-15" target="2dIn2ky05wLc2S2Yu5g8-20" edge="1">
          <mxGeometry relative="1" as="geometry">
            <mxPoint x="260.0000000000001" y="210" as="targetPoint" />
            <Array as="points">
              <mxPoint x="360" y="450" />
            </Array>
          </mxGeometry>
        </mxCell>
        <mxCell id="2dIn2ky05wLc2S2Yu5g8-15" value="&lt;div&gt;R3&lt;/div&gt;&lt;div&gt;3.3k&lt;/div&gt;" style="pointerEvents=1;verticalLabelPosition=bottom;shadow=0;dashed=0;align=center;html=1;verticalAlign=top;shape=mxgraph.electrical.resistors.resistor_2;strokeColor=#000000;fontColor=#000000;labelBackgroundColor=none;" parent="1" vertex="1">
          <mxGeometry x="470" y="440" width="100" height="20" as="geometry" />
        </mxCell>
        <mxCell id="2dIn2ky05wLc2S2Yu5g8-19" value="&lt;div&gt;Unlock&lt;/div&gt;" style="text;html=1;align=center;verticalAlign=middle;resizable=0;points=[];autosize=1;strokeColor=#000000;fontColor=#000000;labelBackgroundColor=none;" parent="1" vertex="1">
          <mxGeometry x="740" y="530" width="60" height="20" as="geometry" />
        </mxCell>
        <mxCell id="2dIn2ky05wLc2S2Yu5g8-20" value="Lock" style="text;html=1;align=center;verticalAlign=middle;resizable=0;points=[];autosize=1;strokeColor=#000000;fontColor=#000000;labelBackgroundColor=none;" parent="1" vertex="1">
          <mxGeometry x="740" y="601" width="40" height="20" as="geometry" />
        </mxCell>
        <mxCell id="2dIn2ky05wLc2S2Yu5g8-22" value="&lt;div&gt;P1&lt;/div&gt;" style="text;html=1;align=center;verticalAlign=middle;resizable=0;points=[];autosize=1;strokeColor=#000000;fontColor=#000000;labelBackgroundColor=none;" parent="1" vertex="1">
          <mxGeometry x="680" y="80" width="30" height="20" as="geometry" />
        </mxCell>
        <mxCell id="2dIn2ky05wLc2S2Yu5g8-23" value="&lt;div&gt;P2&lt;/div&gt;" style="text;html=1;align=center;verticalAlign=middle;resizable=0;points=[];autosize=1;strokeColor=#000000;fontColor=#000000;labelBackgroundColor=none;" parent="1" vertex="1">
          <mxGeometry x="630" y="80" width="30" height="20" as="geometry" />
        </mxCell>
        <mxCell id="u6N9TvEK20pb86zufqTK-24" value="&lt;div&gt;P4&lt;/div&gt;" style="text;html=1;align=center;verticalAlign=middle;resizable=0;points=[];autosize=1;strokeColor=#000000;fontColor=#000000;labelBackgroundColor=none;" parent="1" vertex="1">
          <mxGeometry x="580" y="80" width="30" height="20" as="geometry" />
        </mxCell>
        <mxCell id="u6N9TvEK20pb86zufqTK-26" value="&lt;font style=&quot;font-size: 48px&quot;&gt;VGZ&lt;/font&gt;" style="text;html=1;align=center;verticalAlign=middle;resizable=0;points=[];autosize=1;fontColor=#000000;" parent="1" vertex="1">
          <mxGeometry x="230" y="30" width="120" height="30" as="geometry" />
        </mxCell>
      </root>
    </mxGraphModel>
  </diagram>
  <diagram id="pV5Z0n2KUyFRgJznPkW3" name="VGZv2">
    <mxGraphModel dx="1422" dy="776" grid="0" gridSize="10" guides="1" tooltips="1" connect="1" arrows="1" fold="1" page="1" pageScale="1" pageWidth="827" pageHeight="1169" background="#ffffff" math="0" shadow="0">
      <root>
        <mxCell id="0f3AWLR8AiS9K6v6LXAR-0" />
        <mxCell id="0f3AWLR8AiS9K6v6LXAR-1" parent="0f3AWLR8AiS9K6v6LXAR-0" />
        <mxCell id="0f3AWLR8AiS9K6v6LXAR-2" style="edgeStyle=orthogonalEdgeStyle;rounded=0;jumpStyle=arc;orthogonalLoop=1;jettySize=auto;html=1;exitX=0.7;exitY=1;exitDx=0;exitDy=0;exitPerimeter=0;entryX=0.7;entryY=0;entryDx=0;entryDy=0;entryPerimeter=0;endArrow=none;endFill=0;strokeColor=#000000;fontColor=#000000;labelBackgroundColor=none;" parent="0f3AWLR8AiS9K6v6LXAR-1" source="0f3AWLR8AiS9K6v6LXAR-4" target="0f3AWLR8AiS9K6v6LXAR-7" edge="1">
          <mxGeometry relative="1" as="geometry">
            <Array as="points">
              <mxPoint x="671" y="387" />
              <mxPoint x="671" y="387" />
            </Array>
          </mxGeometry>
        </mxCell>
        <mxCell id="0f3AWLR8AiS9K6v6LXAR-3" style="edgeStyle=orthogonalEdgeStyle;rounded=0;jumpStyle=arc;orthogonalLoop=1;jettySize=auto;html=1;exitX=0.7;exitY=0;exitDx=0;exitDy=0;exitPerimeter=0;endArrow=none;endFill=0;strokeColor=#000000;fontColor=#000000;labelBackgroundColor=none;" parent="0f3AWLR8AiS9K6v6LXAR-1" source="0f3AWLR8AiS9K6v6LXAR-4" target="0f3AWLR8AiS9K6v6LXAR-22" edge="1">
          <mxGeometry relative="1" as="geometry">
            <mxPoint x="674.8620689655172" y="140" as="targetPoint" />
            <Array as="points">
              <mxPoint x="671" y="180" />
              <mxPoint x="695" y="180" />
            </Array>
          </mxGeometry>
        </mxCell>
        <mxCell id="0f3AWLR8AiS9K6v6LXAR-4" value="&lt;div&gt;Q2&lt;/div&gt;&lt;div&gt;BC556&lt;br&gt;&lt;/div&gt;" style="verticalLabelPosition=bottom;shadow=0;dashed=0;align=left;html=1;verticalAlign=top;shape=mxgraph.electrical.transistors.pnp_transistor_1;strokeColor=#000000;fontColor=#000000;labelBackgroundColor=none;fillColor=none;" parent="0f3AWLR8AiS9K6v6LXAR-1" vertex="1">
          <mxGeometry x="618.5" y="210" width="76" height="80" as="geometry" />
        </mxCell>
        <mxCell id="0f3AWLR8AiS9K6v6LXAR-5" style="edgeStyle=orthogonalEdgeStyle;rounded=0;jumpStyle=arc;orthogonalLoop=1;jettySize=auto;html=1;exitX=0.7;exitY=1;exitDx=0;exitDy=0;exitPerimeter=0;endArrow=none;endFill=0;strokeColor=#000000;fontColor=#000000;labelBackgroundColor=none;" parent="0f3AWLR8AiS9K6v6LXAR-1" source="0f3AWLR8AiS9K6v6LXAR-4" target="0f3AWLR8AiS9K6v6LXAR-23" edge="1">
          <mxGeometry relative="1" as="geometry">
            <Array as="points">
              <mxPoint x="671" y="370" />
              <mxPoint x="709" y="370" />
              <mxPoint x="709" y="130" />
              <mxPoint x="645" y="130" />
            </Array>
          </mxGeometry>
        </mxCell>
        <mxCell id="0f3AWLR8AiS9K6v6LXAR-6" style="edgeStyle=orthogonalEdgeStyle;rounded=0;orthogonalLoop=1;jettySize=auto;html=1;exitX=0.7;exitY=1;exitDx=0;exitDy=0;exitPerimeter=0;strokeColor=#000000;fontColor=#000000;endArrow=none;endFill=0;jumpStyle=arc;" parent="0f3AWLR8AiS9K6v6LXAR-1" source="0f3AWLR8AiS9K6v6LXAR-7" target="0f3AWLR8AiS9K6v6LXAR-24" edge="1">
          <mxGeometry relative="1" as="geometry">
            <mxPoint x="600" y="110" as="targetPoint" />
            <Array as="points">
              <mxPoint x="671" y="503" />
              <mxPoint x="726" y="503" />
              <mxPoint x="726" y="160" />
              <mxPoint x="595" y="160" />
            </Array>
          </mxGeometry>
        </mxCell>
        <mxCell id="0f3AWLR8AiS9K6v6LXAR-7" value="&lt;div align=&quot;left&quot;&gt;Q3&lt;br&gt;&lt;/div&gt;&lt;div align=&quot;left&quot;&gt;BC337&lt;/div&gt;" style="verticalLabelPosition=bottom;shadow=0;dashed=0;align=left;html=1;verticalAlign=top;shape=mxgraph.electrical.transistors.npn_transistor_1;strokeColor=#000000;fontColor=#000000;labelBackgroundColor=none;fillColor=none;" parent="0f3AWLR8AiS9K6v6LXAR-1" vertex="1">
          <mxGeometry x="618.5" y="410" width="76" height="80" as="geometry" />
        </mxCell>
        <mxCell id="0f3AWLR8AiS9K6v6LXAR-8" style="edgeStyle=orthogonalEdgeStyle;rounded=0;jumpStyle=arc;orthogonalLoop=1;jettySize=auto;html=1;exitX=0.7;exitY=1;exitDx=0;exitDy=0;exitPerimeter=0;entryX=0.5;entryY=0;entryDx=0;entryDy=0;entryPerimeter=0;endArrow=none;endFill=0;strokeColor=#000000;fontColor=#000000;labelBackgroundColor=none;" parent="0f3AWLR8AiS9K6v6LXAR-1" source="0f3AWLR8AiS9K6v6LXAR-9" target="0f3AWLR8AiS9K6v6LXAR-10" edge="1">
          <mxGeometry relative="1" as="geometry">
            <Array as="points">
              <mxPoint x="511" y="390" />
              <mxPoint x="583" y="390" />
            </Array>
          </mxGeometry>
        </mxCell>
        <mxCell id="0f3AWLR8AiS9K6v6LXAR-9" value="&lt;div&gt;Q1&lt;br&gt;&lt;/div&gt;&lt;div&gt;BC337&lt;/div&gt;" style="verticalLabelPosition=bottom;shadow=0;dashed=0;align=left;html=1;verticalAlign=top;shape=mxgraph.electrical.transistors.npn_transistor_1;strokeColor=#000000;fontColor=#000000;labelBackgroundColor=none;fillColor=none;" parent="0f3AWLR8AiS9K6v6LXAR-1" vertex="1">
          <mxGeometry x="458" y="290" width="76" height="80" as="geometry" />
        </mxCell>
        <mxCell id="0f3AWLR8AiS9K6v6LXAR-10" value="" style="pointerEvents=1;verticalLabelPosition=bottom;shadow=0;dashed=0;align=center;html=1;verticalAlign=top;shape=mxgraph.electrical.signal_sources.protective_earth;strokeColor=#000000;fontColor=#000000;labelBackgroundColor=none;" parent="0f3AWLR8AiS9K6v6LXAR-1" vertex="1">
          <mxGeometry x="570" y="410" width="25" height="20" as="geometry" />
        </mxCell>
        <mxCell id="0f3AWLR8AiS9K6v6LXAR-11" style="edgeStyle=orthogonalEdgeStyle;rounded=0;jumpStyle=arc;orthogonalLoop=1;jettySize=auto;html=1;exitX=1;exitY=0.5;exitDx=0;exitDy=0;exitPerimeter=0;entryX=0;entryY=0.5;entryDx=0;entryDy=0;entryPerimeter=0;endArrow=none;endFill=0;strokeColor=#000000;fontColor=#000000;labelBackgroundColor=none;" parent="0f3AWLR8AiS9K6v6LXAR-1" source="0f3AWLR8AiS9K6v6LXAR-13" target="0f3AWLR8AiS9K6v6LXAR-4" edge="1">
          <mxGeometry relative="1" as="geometry">
            <Array as="points">
              <mxPoint x="609" y="250" />
            </Array>
          </mxGeometry>
        </mxCell>
        <mxCell id="0f3AWLR8AiS9K6v6LXAR-12" style="edgeStyle=orthogonalEdgeStyle;rounded=0;jumpStyle=arc;orthogonalLoop=1;jettySize=auto;html=1;exitX=0;exitY=0.5;exitDx=0;exitDy=0;exitPerimeter=0;entryX=0.7;entryY=0;entryDx=0;entryDy=0;entryPerimeter=0;endArrow=none;endFill=0;strokeColor=#000000;fontColor=#000000;labelBackgroundColor=none;" parent="0f3AWLR8AiS9K6v6LXAR-1" source="0f3AWLR8AiS9K6v6LXAR-13" target="0f3AWLR8AiS9K6v6LXAR-9" edge="1">
          <mxGeometry relative="1" as="geometry">
            <Array as="points">
              <mxPoint x="511" y="250" />
              <mxPoint x="511" y="290" />
            </Array>
          </mxGeometry>
        </mxCell>
        <mxCell id="0f3AWLR8AiS9K6v6LXAR-13" value="&lt;div&gt;R1&lt;/div&gt;&lt;div&gt;3.3k&lt;/div&gt;" style="pointerEvents=1;verticalLabelPosition=bottom;shadow=0;dashed=0;align=center;html=1;verticalAlign=top;shape=mxgraph.electrical.resistors.resistor_2;strokeColor=#000000;fontColor=#000000;labelBackgroundColor=none;" parent="0f3AWLR8AiS9K6v6LXAR-1" vertex="1">
          <mxGeometry x="518.5" y="240" width="100" height="20" as="geometry" />
        </mxCell>
        <mxCell id="0f3AWLR8AiS9K6v6LXAR-14" style="edgeStyle=orthogonalEdgeStyle;rounded=0;jumpStyle=arc;orthogonalLoop=1;jettySize=auto;html=1;exitX=1;exitY=0.5;exitDx=0;exitDy=0;exitPerimeter=0;entryX=0;entryY=0.5;entryDx=0;entryDy=0;entryPerimeter=0;endArrow=none;endFill=0;strokeColor=#000000;fontColor=#000000;labelBackgroundColor=none;" parent="0f3AWLR8AiS9K6v6LXAR-1" source="0f3AWLR8AiS9K6v6LXAR-16" target="0f3AWLR8AiS9K6v6LXAR-9" edge="1">
          <mxGeometry relative="1" as="geometry" />
        </mxCell>
        <mxCell id="0f3AWLR8AiS9K6v6LXAR-15" style="edgeStyle=orthogonalEdgeStyle;rounded=0;jumpStyle=arc;orthogonalLoop=1;jettySize=auto;html=1;exitX=0;exitY=0.5;exitDx=0;exitDy=0;exitPerimeter=0;endArrow=none;endFill=0;strokeColor=#000000;fontColor=#000000;labelBackgroundColor=none;" parent="0f3AWLR8AiS9K6v6LXAR-1" source="0f3AWLR8AiS9K6v6LXAR-16" target="0f3AWLR8AiS9K6v6LXAR-20" edge="1">
          <mxGeometry relative="1" as="geometry">
            <mxPoint x="300" y="210" as="targetPoint" />
            <Array as="points">
              <mxPoint x="430" y="540" />
            </Array>
          </mxGeometry>
        </mxCell>
        <mxCell id="0f3AWLR8AiS9K6v6LXAR-16" value="&lt;div&gt;R2&lt;/div&gt;&lt;div&gt;3.3k&lt;/div&gt;" style="pointerEvents=1;verticalLabelPosition=middle;shadow=0;dashed=0;align=center;html=1;verticalAlign=middle;shape=mxgraph.electrical.resistors.resistor_2;strokeColor=#000000;fontColor=#000000;labelBackgroundColor=none;direction=north;horizontal=1;labelPosition=left;spacingLeft=0;spacingRight=20;" parent="0f3AWLR8AiS9K6v6LXAR-1" vertex="1">
          <mxGeometry x="420" y="330" width="20" height="100" as="geometry" />
        </mxCell>
        <mxCell id="0f3AWLR8AiS9K6v6LXAR-17" style="edgeStyle=orthogonalEdgeStyle;rounded=0;jumpStyle=arc;orthogonalLoop=1;jettySize=auto;html=1;exitX=1;exitY=0.5;exitDx=0;exitDy=0;exitPerimeter=0;entryX=0;entryY=0.5;entryDx=0;entryDy=0;entryPerimeter=0;endArrow=none;endFill=0;strokeColor=#000000;fontColor=#000000;labelBackgroundColor=none;" parent="0f3AWLR8AiS9K6v6LXAR-1" source="0f3AWLR8AiS9K6v6LXAR-19" target="0f3AWLR8AiS9K6v6LXAR-7" edge="1">
          <mxGeometry relative="1" as="geometry" />
        </mxCell>
        <mxCell id="0f3AWLR8AiS9K6v6LXAR-18" style="edgeStyle=orthogonalEdgeStyle;rounded=0;jumpStyle=arc;orthogonalLoop=1;jettySize=auto;html=1;exitX=0;exitY=0.5;exitDx=0;exitDy=0;exitPerimeter=0;endArrow=none;endFill=0;strokeColor=#000000;fontColor=#000000;labelBackgroundColor=none;" parent="0f3AWLR8AiS9K6v6LXAR-1" source="0f3AWLR8AiS9K6v6LXAR-19" target="0f3AWLR8AiS9K6v6LXAR-21" edge="1">
          <mxGeometry relative="1" as="geometry">
            <mxPoint x="260.0000000000001" y="210" as="targetPoint" />
            <Array as="points">
              <mxPoint x="360" y="450" />
            </Array>
          </mxGeometry>
        </mxCell>
        <mxCell id="0f3AWLR8AiS9K6v6LXAR-19" value="&lt;div&gt;R3&lt;/div&gt;&lt;div&gt;3.3k&lt;/div&gt;" style="pointerEvents=1;verticalLabelPosition=bottom;shadow=0;dashed=0;align=center;html=1;verticalAlign=top;shape=mxgraph.electrical.resistors.resistor_2;strokeColor=#000000;fontColor=#000000;labelBackgroundColor=none;" parent="0f3AWLR8AiS9K6v6LXAR-1" vertex="1">
          <mxGeometry x="470" y="440" width="100" height="20" as="geometry" />
        </mxCell>
        <mxCell id="0f3AWLR8AiS9K6v6LXAR-20" value="&lt;div&gt;Unlock&lt;/div&gt;" style="text;html=1;align=center;verticalAlign=middle;resizable=0;points=[];autosize=1;strokeColor=#000000;fontColor=#000000;labelBackgroundColor=none;" parent="0f3AWLR8AiS9K6v6LXAR-1" vertex="1">
          <mxGeometry x="740" y="530" width="60" height="20" as="geometry" />
        </mxCell>
        <mxCell id="0f3AWLR8AiS9K6v6LXAR-21" value="Lock" style="text;html=1;align=center;verticalAlign=middle;resizable=0;points=[];autosize=1;strokeColor=#000000;fontColor=#000000;labelBackgroundColor=none;" parent="0f3AWLR8AiS9K6v6LXAR-1" vertex="1">
          <mxGeometry x="740" y="601" width="40" height="20" as="geometry" />
        </mxCell>
        <mxCell id="0f3AWLR8AiS9K6v6LXAR-22" value="&lt;div&gt;P1&lt;/div&gt;" style="text;html=1;align=center;verticalAlign=middle;resizable=0;points=[];autosize=1;strokeColor=#000000;fontColor=#000000;labelBackgroundColor=none;" parent="0f3AWLR8AiS9K6v6LXAR-1" vertex="1">
          <mxGeometry x="680" y="80" width="30" height="20" as="geometry" />
        </mxCell>
        <mxCell id="0f3AWLR8AiS9K6v6LXAR-23" value="&lt;div&gt;P2&lt;/div&gt;" style="text;html=1;align=center;verticalAlign=middle;resizable=0;points=[];autosize=1;strokeColor=#000000;fontColor=#000000;labelBackgroundColor=none;" parent="0f3AWLR8AiS9K6v6LXAR-1" vertex="1">
          <mxGeometry x="630" y="80" width="30" height="20" as="geometry" />
        </mxCell>
        <mxCell id="0f3AWLR8AiS9K6v6LXAR-24" value="&lt;div&gt;P4&lt;/div&gt;" style="text;html=1;align=center;verticalAlign=middle;resizable=0;points=[];autosize=1;strokeColor=#000000;fontColor=#000000;labelBackgroundColor=none;" parent="0f3AWLR8AiS9K6v6LXAR-1" vertex="1">
          <mxGeometry x="580" y="80" width="30" height="20" as="geometry" />
        </mxCell>
        <mxCell id="0f3AWLR8AiS9K6v6LXAR-25" value="&lt;font style=&quot;font-size: 48px&quot;&gt;VGZ&lt;/font&gt;" style="text;html=1;align=center;verticalAlign=middle;resizable=0;points=[];autosize=1;fontColor=#000000;" parent="0f3AWLR8AiS9K6v6LXAR-1" vertex="1">
          <mxGeometry x="230" y="30" width="120" height="30" as="geometry" />
        </mxCell>
        <mxCell id="0f3AWLR8AiS9K6v6LXAR-26" value="+3.3V" style="rounded=0;whiteSpace=wrap;html=1;strokeColor=#000000;fontColor=#000000;align=center;" parent="0f3AWLR8AiS9K6v6LXAR-1" vertex="1">
          <mxGeometry x="39" y="252" width="50" height="25" as="geometry" />
        </mxCell>
        <mxCell id="0f3AWLR8AiS9K6v6LXAR-31" style="edgeStyle=orthogonalEdgeStyle;rounded=0;jumpStyle=arc;orthogonalLoop=1;jettySize=auto;html=1;exitX=0.4;exitY=0.05;exitDx=0;exitDy=0;exitPerimeter=0;endArrow=none;endFill=0;strokeColor=#000000;fontColor=#000000;" parent="0f3AWLR8AiS9K6v6LXAR-1" source="0f3AWLR8AiS9K6v6LXAR-36" target="0f3AWLR8AiS9K6v6LXAR-37" edge="1">
          <mxGeometry relative="1" as="geometry">
            <Array as="points">
              <mxPoint x="274" y="112" />
              <mxPoint x="63" y="112" />
            </Array>
          </mxGeometry>
        </mxCell>
        <mxCell id="0f3AWLR8AiS9K6v6LXAR-32" style="edgeStyle=orthogonalEdgeStyle;rounded=0;jumpStyle=arc;orthogonalLoop=1;jettySize=auto;html=1;endArrow=none;endFill=0;strokeColor=#000000;fontColor=#000000;exitX=0;exitY=0.165;exitDx=0;exitDy=0;exitPerimeter=0;" parent="0f3AWLR8AiS9K6v6LXAR-1" source="0f3AWLR8AiS9K6v6LXAR-36" target="0f3AWLR8AiS9K6v6LXAR-26" edge="1">
          <mxGeometry relative="1" as="geometry">
            <mxPoint x="224" y="265" as="sourcePoint" />
            <mxPoint x="149" y="291" as="targetPoint" />
            <Array as="points">
              <mxPoint x="173" y="247" />
              <mxPoint x="173" y="265" />
            </Array>
          </mxGeometry>
        </mxCell>
        <mxCell id="0f3AWLR8AiS9K6v6LXAR-33" style="edgeStyle=orthogonalEdgeStyle;rounded=0;jumpStyle=arc;orthogonalLoop=1;jettySize=auto;html=1;exitX=0;exitY=0.835;exitDx=0;exitDy=0;exitPerimeter=0;entryX=0;entryY=0.5;entryDx=0;entryDy=0;entryPerimeter=0;endArrow=none;endFill=0;strokeColor=#000000;fontColor=#000000;" parent="0f3AWLR8AiS9K6v6LXAR-1" source="0f3AWLR8AiS9K6v6LXAR-36" target="0f3AWLR8AiS9K6v6LXAR-42" edge="1">
          <mxGeometry relative="1" as="geometry">
            <Array as="points">
              <mxPoint x="220" y="307" />
              <mxPoint x="220" y="370" />
            </Array>
          </mxGeometry>
        </mxCell>
        <mxCell id="0f3AWLR8AiS9K6v6LXAR-34" style="edgeStyle=orthogonalEdgeStyle;rounded=0;jumpStyle=arc;orthogonalLoop=1;jettySize=auto;html=1;exitX=0.4;exitY=0.95;exitDx=0;exitDy=0;exitPerimeter=0;entryX=0.5;entryY=0;entryDx=0;entryDy=0;entryPerimeter=0;endArrow=none;endFill=0;strokeColor=#000000;fontColor=#000000;" parent="0f3AWLR8AiS9K6v6LXAR-1" source="0f3AWLR8AiS9K6v6LXAR-36" target="0f3AWLR8AiS9K6v6LXAR-44" edge="1">
          <mxGeometry relative="1" as="geometry" />
        </mxCell>
        <mxCell id="0f3AWLR8AiS9K6v6LXAR-35" style="edgeStyle=orthogonalEdgeStyle;rounded=0;jumpStyle=arc;orthogonalLoop=1;jettySize=auto;html=1;exitX=1;exitY=0.5;exitDx=0;exitDy=0;exitPerimeter=0;endArrow=none;endFill=0;" parent="0f3AWLR8AiS9K6v6LXAR-1" source="0f3AWLR8AiS9K6v6LXAR-36" target="0f3AWLR8AiS9K6v6LXAR-45" edge="1">
          <mxGeometry relative="1" as="geometry">
            <Array as="points">
              <mxPoint x="339" y="277" />
              <mxPoint x="339" y="576" />
            </Array>
          </mxGeometry>
        </mxCell>
        <mxCell id="0f3AWLR8AiS9K6v6LXAR-36" value="&lt;div&gt;LM393&lt;/div&gt;" style="verticalLabelPosition=bottom;shadow=0;dashed=0;align=left;html=1;verticalAlign=top;shape=mxgraph.electrical.abstract.ota_1;strokeColor=#000000;fontColor=#000000;" parent="0f3AWLR8AiS9K6v6LXAR-1" vertex="1">
          <mxGeometry x="234" y="232" width="100" height="90" as="geometry" />
        </mxCell>
        <mxCell id="0f3AWLR8AiS9K6v6LXAR-37" value="+12V" style="rounded=0;whiteSpace=wrap;html=1;strokeColor=#000000;fontColor=#000000;align=center;" parent="0f3AWLR8AiS9K6v6LXAR-1" vertex="1">
          <mxGeometry x="39" y="183" width="48" height="24" as="geometry" />
        </mxCell>
        <mxCell id="0f3AWLR8AiS9K6v6LXAR-38" style="edgeStyle=orthogonalEdgeStyle;rounded=0;jumpStyle=arc;orthogonalLoop=1;jettySize=auto;html=1;exitX=0;exitY=0.5;exitDx=0;exitDy=0;exitPerimeter=0;endArrow=none;endFill=0;strokeColor=#000000;fontColor=#000000;" parent="0f3AWLR8AiS9K6v6LXAR-1" source="0f3AWLR8AiS9K6v6LXAR-39" target="0f3AWLR8AiS9K6v6LXAR-37" edge="1">
          <mxGeometry relative="1" as="geometry">
            <Array as="points">
              <mxPoint x="220" y="112" />
              <mxPoint x="63" y="112" />
            </Array>
          </mxGeometry>
        </mxCell>
        <mxCell id="0f3AWLR8AiS9K6v6LXAR-39" value="&lt;div&gt;R4&lt;/div&gt;&lt;div&gt;10k&lt;br&gt;&lt;/div&gt;" style="pointerEvents=1;verticalLabelPosition=middle;shadow=0;dashed=0;align=right;html=1;verticalAlign=middle;shape=mxgraph.electrical.resistors.resistor_2;strokeColor=#000000;fontColor=#000000;direction=south;labelPosition=left;spacingRight=10;" parent="0f3AWLR8AiS9K6v6LXAR-1" vertex="1">
          <mxGeometry x="210" y="127" width="20" height="100" as="geometry" />
        </mxCell>
        <mxCell id="0f3AWLR8AiS9K6v6LXAR-40" style="edgeStyle=orthogonalEdgeStyle;rounded=0;jumpStyle=arc;orthogonalLoop=1;jettySize=auto;html=1;exitX=0;exitY=0.5;exitDx=0;exitDy=0;exitPerimeter=0;entryX=1;entryY=0.5;entryDx=0;entryDy=0;entryPerimeter=0;endArrow=none;endFill=0;strokeColor=#000000;fontColor=#000000;" parent="0f3AWLR8AiS9K6v6LXAR-1" source="0f3AWLR8AiS9K6v6LXAR-42" target="0f3AWLR8AiS9K6v6LXAR-39" edge="1">
          <mxGeometry relative="1" as="geometry">
            <Array as="points">
              <mxPoint x="220" y="370" />
            </Array>
          </mxGeometry>
        </mxCell>
        <mxCell id="0f3AWLR8AiS9K6v6LXAR-41" style="edgeStyle=orthogonalEdgeStyle;rounded=0;jumpStyle=arc;orthogonalLoop=1;jettySize=auto;html=1;exitX=1;exitY=0.5;exitDx=0;exitDy=0;exitPerimeter=0;entryX=0.5;entryY=0;entryDx=0;entryDy=0;entryPerimeter=0;endArrow=none;endFill=0;strokeColor=#000000;fontColor=#000000;" parent="0f3AWLR8AiS9K6v6LXAR-1" source="0f3AWLR8AiS9K6v6LXAR-42" target="0f3AWLR8AiS9K6v6LXAR-43" edge="1">
          <mxGeometry relative="1" as="geometry" />
        </mxCell>
        <mxCell id="0f3AWLR8AiS9K6v6LXAR-42" value="&lt;div&gt;R5&lt;/div&gt;&lt;div&gt;3.3k&lt;br&gt;&lt;/div&gt;" style="pointerEvents=1;verticalLabelPosition=middle;shadow=0;dashed=0;align=right;html=1;verticalAlign=middle;shape=mxgraph.electrical.resistors.resistor_2;strokeColor=#000000;fontColor=#000000;direction=south;labelPosition=left;spacingRight=10;" parent="0f3AWLR8AiS9K6v6LXAR-1" vertex="1">
          <mxGeometry x="278" y="370" width="20" height="100" as="geometry" />
        </mxCell>
        <mxCell id="0f3AWLR8AiS9K6v6LXAR-43" value="" style="pointerEvents=1;verticalLabelPosition=bottom;shadow=0;dashed=0;align=center;html=1;verticalAlign=top;shape=mxgraph.electrical.signal_sources.protective_earth;strokeColor=#000000;fontColor=#000000;labelBackgroundColor=none;" parent="0f3AWLR8AiS9K6v6LXAR-1" vertex="1">
          <mxGeometry x="275.5" y="477" width="25" height="20" as="geometry" />
        </mxCell>
        <mxCell id="0f3AWLR8AiS9K6v6LXAR-44" value="" style="pointerEvents=1;verticalLabelPosition=bottom;shadow=0;dashed=0;align=center;html=1;verticalAlign=top;shape=mxgraph.electrical.signal_sources.protective_earth;strokeColor=#000000;fontColor=#000000;labelBackgroundColor=none;" parent="0f3AWLR8AiS9K6v6LXAR-1" vertex="1">
          <mxGeometry x="295" y="325" width="25" height="20" as="geometry" />
        </mxCell>
        <mxCell id="0f3AWLR8AiS9K6v6LXAR-45" value="Engine" style="text;html=1;align=center;verticalAlign=middle;resizable=0;points=[];autosize=1;strokeColor=#000000;fontColor=#000000;labelBackgroundColor=none;" parent="0f3AWLR8AiS9K6v6LXAR-1" vertex="1">
          <mxGeometry x="740" y="567" width="53" height="18" as="geometry" />
        </mxCell>
        <mxCell id="0f3AWLR8AiS9K6v6LXAR-49" style="edgeStyle=orthogonalEdgeStyle;rounded=0;jumpStyle=arc;orthogonalLoop=1;jettySize=auto;html=1;exitX=0;exitY=0.5;exitDx=0;exitDy=0;exitPerimeter=0;endArrow=none;endFill=0;" parent="0f3AWLR8AiS9K6v6LXAR-1" target="0f3AWLR8AiS9K6v6LXAR-26" edge="1">
          <mxGeometry relative="1" as="geometry">
            <Array as="points">
              <mxPoint x="141" y="265" />
              <mxPoint x="141" y="265" />
            </Array>
            <mxPoint x="158" y="265" as="sourcePoint" />
          </mxGeometry>
        </mxCell>
        <mxCell id="nmUGXqAcc9SSCpf5VhwV-2" style="edgeStyle=orthogonalEdgeStyle;rounded=0;orthogonalLoop=1;jettySize=auto;html=1;exitX=0.5;exitY=0;exitDx=0;exitDy=0;exitPerimeter=0;endArrow=none;endFill=0;jumpStyle=arc;" parent="0f3AWLR8AiS9K6v6LXAR-1" source="nmUGXqAcc9SSCpf5VhwV-0" target="nmUGXqAcc9SSCpf5VhwV-1" edge="1">
          <mxGeometry relative="1" as="geometry" />
        </mxCell>
        <mxCell id="nmUGXqAcc9SSCpf5VhwV-0" value="" style="pointerEvents=1;verticalLabelPosition=bottom;shadow=0;dashed=0;align=center;html=1;verticalAlign=top;shape=mxgraph.electrical.signal_sources.protective_earth;strokeColor=#000000;fontColor=#000000;labelBackgroundColor=none;" parent="0f3AWLR8AiS9K6v6LXAR-1" vertex="1">
          <mxGeometry x="103" y="212" width="25" height="20" as="geometry" />
        </mxCell>
        <mxCell id="nmUGXqAcc9SSCpf5VhwV-3" style="edgeStyle=orthogonalEdgeStyle;rounded=0;jumpStyle=arc;orthogonalLoop=1;jettySize=auto;html=1;exitX=1;exitY=0.5;exitDx=0;exitDy=0;exitPerimeter=0;entryX=0.5;entryY=0;entryDx=0;entryDy=0;endArrow=none;endFill=0;" parent="0f3AWLR8AiS9K6v6LXAR-1" source="nmUGXqAcc9SSCpf5VhwV-1" target="0f3AWLR8AiS9K6v6LXAR-37" edge="1">
          <mxGeometry relative="1" as="geometry">
            <Array as="points">
              <mxPoint x="116" y="112" />
              <mxPoint x="63" y="112" />
            </Array>
          </mxGeometry>
        </mxCell>
        <mxCell id="nmUGXqAcc9SSCpf5VhwV-1" value="15V" style="pointerEvents=1;fillColor=#000000;verticalLabelPosition=bottom;shadow=0;dashed=0;align=center;html=1;verticalAlign=top;shape=mxgraph.electrical.diodes.zener_diode_3;rotation=-90;" parent="0f3AWLR8AiS9K6v6LXAR-1" vertex="1">
          <mxGeometry x="93.75" y="150" width="43.5" height="26.1" as="geometry" />
        </mxCell>
      </root>
    </mxGraphModel>
  </diagram>
  <diagram id="tsje0lbA1sN6EicBRgq3" name="VGZv2.1">
    <mxGraphModel dx="1422" dy="776" grid="0" gridSize="10" guides="1" tooltips="1" connect="1" arrows="1" fold="1" page="1" pageScale="1" pageWidth="827" pageHeight="1169" math="0" shadow="0">
      <root>
        <mxCell id="yZQsK8jCaA-zgjuyDWvM-0" />
        <mxCell id="yZQsK8jCaA-zgjuyDWvM-1" parent="yZQsK8jCaA-zgjuyDWvM-0" />
        <mxCell id="yZQsK8jCaA-zgjuyDWvM-2" style="edgeStyle=orthogonalEdgeStyle;rounded=0;jumpStyle=arc;orthogonalLoop=1;jettySize=auto;html=1;exitX=0.7;exitY=1;exitDx=0;exitDy=0;exitPerimeter=0;entryX=0.7;entryY=0;entryDx=0;entryDy=0;entryPerimeter=0;endArrow=none;endFill=0;strokeColor=#000000;fontColor=#000000;labelBackgroundColor=none;" parent="yZQsK8jCaA-zgjuyDWvM-1" source="yZQsK8jCaA-zgjuyDWvM-4" target="yZQsK8jCaA-zgjuyDWvM-7" edge="1">
          <mxGeometry relative="1" as="geometry">
            <Array as="points">
              <mxPoint x="671" y="387" />
              <mxPoint x="671" y="387" />
            </Array>
          </mxGeometry>
        </mxCell>
        <mxCell id="yZQsK8jCaA-zgjuyDWvM-3" style="edgeStyle=orthogonalEdgeStyle;rounded=0;jumpStyle=arc;orthogonalLoop=1;jettySize=auto;html=1;exitX=0.7;exitY=0;exitDx=0;exitDy=0;exitPerimeter=0;endArrow=none;endFill=0;strokeColor=#000000;fontColor=#000000;labelBackgroundColor=none;" parent="yZQsK8jCaA-zgjuyDWvM-1" source="yZQsK8jCaA-zgjuyDWvM-4" target="yZQsK8jCaA-zgjuyDWvM-22" edge="1">
          <mxGeometry relative="1" as="geometry">
            <mxPoint x="674.8620689655172" y="140" as="targetPoint" />
            <Array as="points">
              <mxPoint x="671" y="180" />
              <mxPoint x="695" y="180" />
            </Array>
          </mxGeometry>
        </mxCell>
        <mxCell id="yZQsK8jCaA-zgjuyDWvM-4" value="&lt;div&gt;Q2&lt;/div&gt;&lt;div&gt;BC556&lt;br&gt;&lt;/div&gt;" style="verticalLabelPosition=bottom;shadow=0;dashed=0;align=left;html=1;verticalAlign=top;shape=mxgraph.electrical.transistors.pnp_transistor_1;strokeColor=#000000;fontColor=#000000;labelBackgroundColor=none;fillColor=none;" parent="yZQsK8jCaA-zgjuyDWvM-1" vertex="1">
          <mxGeometry x="618.5" y="210" width="76" height="80" as="geometry" />
        </mxCell>
        <mxCell id="yZQsK8jCaA-zgjuyDWvM-5" style="edgeStyle=orthogonalEdgeStyle;rounded=0;jumpStyle=arc;orthogonalLoop=1;jettySize=auto;html=1;exitX=0.7;exitY=1;exitDx=0;exitDy=0;exitPerimeter=0;endArrow=none;endFill=0;strokeColor=#000000;fontColor=#000000;labelBackgroundColor=none;" parent="yZQsK8jCaA-zgjuyDWvM-1" source="yZQsK8jCaA-zgjuyDWvM-4" target="yZQsK8jCaA-zgjuyDWvM-23" edge="1">
          <mxGeometry relative="1" as="geometry">
            <Array as="points">
              <mxPoint x="671" y="370" />
              <mxPoint x="709" y="370" />
              <mxPoint x="709" y="130" />
              <mxPoint x="645" y="130" />
            </Array>
          </mxGeometry>
        </mxCell>
        <mxCell id="yZQsK8jCaA-zgjuyDWvM-6" style="edgeStyle=orthogonalEdgeStyle;rounded=0;orthogonalLoop=1;jettySize=auto;html=1;exitX=0.7;exitY=1;exitDx=0;exitDy=0;exitPerimeter=0;strokeColor=#000000;fontColor=#000000;endArrow=none;endFill=0;jumpStyle=arc;" parent="yZQsK8jCaA-zgjuyDWvM-1" source="yZQsK8jCaA-zgjuyDWvM-7" target="yZQsK8jCaA-zgjuyDWvM-24" edge="1">
          <mxGeometry relative="1" as="geometry">
            <mxPoint x="600" y="110" as="targetPoint" />
            <Array as="points">
              <mxPoint x="671" y="503" />
              <mxPoint x="726" y="503" />
              <mxPoint x="726" y="160" />
              <mxPoint x="595" y="160" />
            </Array>
          </mxGeometry>
        </mxCell>
        <mxCell id="yZQsK8jCaA-zgjuyDWvM-7" value="&lt;div align=&quot;left&quot;&gt;Q3&lt;br&gt;&lt;/div&gt;&lt;div align=&quot;left&quot;&gt;BC337&lt;/div&gt;" style="verticalLabelPosition=bottom;shadow=0;dashed=0;align=left;html=1;verticalAlign=top;shape=mxgraph.electrical.transistors.npn_transistor_1;strokeColor=#000000;fontColor=#000000;labelBackgroundColor=none;fillColor=none;" parent="yZQsK8jCaA-zgjuyDWvM-1" vertex="1">
          <mxGeometry x="618.5" y="410" width="76" height="80" as="geometry" />
        </mxCell>
        <mxCell id="yZQsK8jCaA-zgjuyDWvM-8" style="edgeStyle=orthogonalEdgeStyle;rounded=0;jumpStyle=arc;orthogonalLoop=1;jettySize=auto;html=1;exitX=0.7;exitY=1;exitDx=0;exitDy=0;exitPerimeter=0;entryX=0.5;entryY=0;entryDx=0;entryDy=0;entryPerimeter=0;endArrow=none;endFill=0;strokeColor=#000000;fontColor=#000000;labelBackgroundColor=none;" parent="yZQsK8jCaA-zgjuyDWvM-1" source="yZQsK8jCaA-zgjuyDWvM-9" target="yZQsK8jCaA-zgjuyDWvM-10" edge="1">
          <mxGeometry relative="1" as="geometry">
            <Array as="points">
              <mxPoint x="511" y="390" />
              <mxPoint x="583" y="390" />
            </Array>
          </mxGeometry>
        </mxCell>
        <mxCell id="yZQsK8jCaA-zgjuyDWvM-9" value="&lt;div&gt;Q1&lt;br&gt;&lt;/div&gt;&lt;div&gt;BC337&lt;/div&gt;" style="verticalLabelPosition=bottom;shadow=0;dashed=0;align=left;html=1;verticalAlign=top;shape=mxgraph.electrical.transistors.npn_transistor_1;strokeColor=#000000;fontColor=#000000;labelBackgroundColor=none;fillColor=none;" parent="yZQsK8jCaA-zgjuyDWvM-1" vertex="1">
          <mxGeometry x="458" y="290" width="76" height="80" as="geometry" />
        </mxCell>
        <mxCell id="yZQsK8jCaA-zgjuyDWvM-10" value="" style="pointerEvents=1;verticalLabelPosition=bottom;shadow=0;dashed=0;align=center;html=1;verticalAlign=top;shape=mxgraph.electrical.signal_sources.protective_earth;strokeColor=#000000;fontColor=#000000;labelBackgroundColor=none;" parent="yZQsK8jCaA-zgjuyDWvM-1" vertex="1">
          <mxGeometry x="570" y="410" width="25" height="20" as="geometry" />
        </mxCell>
        <mxCell id="yZQsK8jCaA-zgjuyDWvM-11" style="edgeStyle=orthogonalEdgeStyle;rounded=0;jumpStyle=arc;orthogonalLoop=1;jettySize=auto;html=1;exitX=1;exitY=0.5;exitDx=0;exitDy=0;exitPerimeter=0;entryX=0;entryY=0.5;entryDx=0;entryDy=0;entryPerimeter=0;endArrow=none;endFill=0;strokeColor=#000000;fontColor=#000000;labelBackgroundColor=none;" parent="yZQsK8jCaA-zgjuyDWvM-1" source="yZQsK8jCaA-zgjuyDWvM-13" target="yZQsK8jCaA-zgjuyDWvM-4" edge="1">
          <mxGeometry relative="1" as="geometry">
            <Array as="points">
              <mxPoint x="609" y="250" />
            </Array>
          </mxGeometry>
        </mxCell>
        <mxCell id="yZQsK8jCaA-zgjuyDWvM-12" style="edgeStyle=orthogonalEdgeStyle;rounded=0;jumpStyle=arc;orthogonalLoop=1;jettySize=auto;html=1;exitX=0;exitY=0.5;exitDx=0;exitDy=0;exitPerimeter=0;entryX=0.7;entryY=0;entryDx=0;entryDy=0;entryPerimeter=0;endArrow=none;endFill=0;strokeColor=#000000;fontColor=#000000;labelBackgroundColor=none;" parent="yZQsK8jCaA-zgjuyDWvM-1" source="yZQsK8jCaA-zgjuyDWvM-13" target="yZQsK8jCaA-zgjuyDWvM-9" edge="1">
          <mxGeometry relative="1" as="geometry">
            <Array as="points">
              <mxPoint x="511" y="250" />
              <mxPoint x="511" y="290" />
            </Array>
          </mxGeometry>
        </mxCell>
        <mxCell id="yZQsK8jCaA-zgjuyDWvM-13" value="&lt;div&gt;R1&lt;/div&gt;&lt;div&gt;3.3k&lt;/div&gt;" style="pointerEvents=1;verticalLabelPosition=bottom;shadow=0;dashed=0;align=center;html=1;verticalAlign=top;shape=mxgraph.electrical.resistors.resistor_2;strokeColor=#000000;fontColor=#000000;labelBackgroundColor=none;" parent="yZQsK8jCaA-zgjuyDWvM-1" vertex="1">
          <mxGeometry x="518.5" y="240" width="100" height="20" as="geometry" />
        </mxCell>
        <mxCell id="yZQsK8jCaA-zgjuyDWvM-14" style="edgeStyle=orthogonalEdgeStyle;rounded=0;jumpStyle=arc;orthogonalLoop=1;jettySize=auto;html=1;exitX=1;exitY=0.5;exitDx=0;exitDy=0;exitPerimeter=0;entryX=0;entryY=0.5;entryDx=0;entryDy=0;entryPerimeter=0;endArrow=none;endFill=0;strokeColor=#000000;fontColor=#000000;labelBackgroundColor=none;" parent="yZQsK8jCaA-zgjuyDWvM-1" source="yZQsK8jCaA-zgjuyDWvM-16" target="yZQsK8jCaA-zgjuyDWvM-9" edge="1">
          <mxGeometry relative="1" as="geometry" />
        </mxCell>
        <mxCell id="yZQsK8jCaA-zgjuyDWvM-15" style="edgeStyle=orthogonalEdgeStyle;rounded=0;jumpStyle=arc;orthogonalLoop=1;jettySize=auto;html=1;exitX=0;exitY=0.5;exitDx=0;exitDy=0;exitPerimeter=0;endArrow=none;endFill=0;strokeColor=#000000;fontColor=#000000;labelBackgroundColor=none;" parent="yZQsK8jCaA-zgjuyDWvM-1" source="yZQsK8jCaA-zgjuyDWvM-16" target="yZQsK8jCaA-zgjuyDWvM-20" edge="1">
          <mxGeometry relative="1" as="geometry">
            <mxPoint x="300" y="210" as="targetPoint" />
            <Array as="points">
              <mxPoint x="430" y="540" />
            </Array>
          </mxGeometry>
        </mxCell>
        <mxCell id="yZQsK8jCaA-zgjuyDWvM-16" value="&lt;div&gt;R2&lt;/div&gt;&lt;div&gt;3.3k&lt;/div&gt;" style="pointerEvents=1;verticalLabelPosition=middle;shadow=0;dashed=0;align=center;html=1;verticalAlign=middle;shape=mxgraph.electrical.resistors.resistor_2;strokeColor=#000000;fontColor=#000000;labelBackgroundColor=none;direction=north;horizontal=1;labelPosition=left;spacingLeft=0;spacingRight=20;" parent="yZQsK8jCaA-zgjuyDWvM-1" vertex="1">
          <mxGeometry x="420" y="330" width="20" height="100" as="geometry" />
        </mxCell>
        <mxCell id="yZQsK8jCaA-zgjuyDWvM-17" style="edgeStyle=orthogonalEdgeStyle;rounded=0;jumpStyle=arc;orthogonalLoop=1;jettySize=auto;html=1;exitX=1;exitY=0.5;exitDx=0;exitDy=0;exitPerimeter=0;entryX=0;entryY=0.5;entryDx=0;entryDy=0;entryPerimeter=0;endArrow=none;endFill=0;strokeColor=#000000;fontColor=#000000;labelBackgroundColor=none;" parent="yZQsK8jCaA-zgjuyDWvM-1" source="yZQsK8jCaA-zgjuyDWvM-19" target="yZQsK8jCaA-zgjuyDWvM-7" edge="1">
          <mxGeometry relative="1" as="geometry" />
        </mxCell>
        <mxCell id="yZQsK8jCaA-zgjuyDWvM-18" style="edgeStyle=orthogonalEdgeStyle;rounded=0;jumpStyle=arc;orthogonalLoop=1;jettySize=auto;html=1;exitX=0;exitY=0.5;exitDx=0;exitDy=0;exitPerimeter=0;endArrow=none;endFill=0;strokeColor=#000000;fontColor=#000000;labelBackgroundColor=none;" parent="yZQsK8jCaA-zgjuyDWvM-1" source="yZQsK8jCaA-zgjuyDWvM-19" target="yZQsK8jCaA-zgjuyDWvM-21" edge="1">
          <mxGeometry relative="1" as="geometry">
            <mxPoint x="260.0000000000001" y="210" as="targetPoint" />
            <Array as="points">
              <mxPoint x="360" y="450" />
            </Array>
          </mxGeometry>
        </mxCell>
        <mxCell id="yZQsK8jCaA-zgjuyDWvM-19" value="&lt;div&gt;R3&lt;/div&gt;&lt;div&gt;3.3k&lt;/div&gt;" style="pointerEvents=1;verticalLabelPosition=bottom;shadow=0;dashed=0;align=center;html=1;verticalAlign=top;shape=mxgraph.electrical.resistors.resistor_2;strokeColor=#000000;fontColor=#000000;labelBackgroundColor=none;" parent="yZQsK8jCaA-zgjuyDWvM-1" vertex="1">
          <mxGeometry x="470" y="440" width="100" height="20" as="geometry" />
        </mxCell>
        <mxCell id="yZQsK8jCaA-zgjuyDWvM-20" value="&lt;div&gt;Unlock&lt;/div&gt;" style="text;html=1;align=center;verticalAlign=middle;resizable=0;points=[];autosize=1;strokeColor=#000000;fontColor=#000000;labelBackgroundColor=none;" parent="yZQsK8jCaA-zgjuyDWvM-1" vertex="1">
          <mxGeometry x="740" y="530" width="60" height="20" as="geometry" />
        </mxCell>
        <mxCell id="yZQsK8jCaA-zgjuyDWvM-21" value="Lock" style="text;html=1;align=center;verticalAlign=middle;resizable=0;points=[];autosize=1;strokeColor=#000000;fontColor=#000000;labelBackgroundColor=none;" parent="yZQsK8jCaA-zgjuyDWvM-1" vertex="1">
          <mxGeometry x="740" y="601" width="40" height="20" as="geometry" />
        </mxCell>
        <mxCell id="yZQsK8jCaA-zgjuyDWvM-22" value="&lt;div&gt;P1&lt;/div&gt;" style="text;html=1;align=center;verticalAlign=middle;resizable=0;points=[];autosize=1;strokeColor=#000000;fontColor=#000000;labelBackgroundColor=none;" parent="yZQsK8jCaA-zgjuyDWvM-1" vertex="1">
          <mxGeometry x="680" y="80" width="30" height="20" as="geometry" />
        </mxCell>
        <mxCell id="yZQsK8jCaA-zgjuyDWvM-23" value="&lt;div&gt;P2&lt;/div&gt;" style="text;html=1;align=center;verticalAlign=middle;resizable=0;points=[];autosize=1;strokeColor=#000000;fontColor=#000000;labelBackgroundColor=none;" parent="yZQsK8jCaA-zgjuyDWvM-1" vertex="1">
          <mxGeometry x="630" y="80" width="30" height="20" as="geometry" />
        </mxCell>
        <mxCell id="yZQsK8jCaA-zgjuyDWvM-24" value="&lt;div&gt;P4&lt;/div&gt;" style="text;html=1;align=center;verticalAlign=middle;resizable=0;points=[];autosize=1;strokeColor=#000000;fontColor=#000000;labelBackgroundColor=none;" parent="yZQsK8jCaA-zgjuyDWvM-1" vertex="1">
          <mxGeometry x="580" y="80" width="30" height="20" as="geometry" />
        </mxCell>
        <mxCell id="yZQsK8jCaA-zgjuyDWvM-25" value="&lt;font style=&quot;font-size: 48px&quot;&gt;VGZ&lt;/font&gt;" style="text;html=1;align=center;verticalAlign=middle;resizable=0;points=[];autosize=1;fontColor=#000000;" parent="yZQsK8jCaA-zgjuyDWvM-1" vertex="1">
          <mxGeometry x="230" y="30" width="120" height="30" as="geometry" />
        </mxCell>
        <mxCell id="yZQsK8jCaA-zgjuyDWvM-33" value="&lt;div&gt;Tail light&lt;/div&gt;&lt;div&gt;+14V&lt;br&gt;&lt;/div&gt;" style="rounded=0;whiteSpace=wrap;html=1;strokeColor=#000000;fontColor=#000000;align=center;" parent="yZQsK8jCaA-zgjuyDWvM-1" vertex="1">
          <mxGeometry x="35" y="177" width="76" height="44" as="geometry" />
        </mxCell>
        <mxCell id="yZQsK8jCaA-zgjuyDWvM-41" value="Engine" style="text;html=1;align=center;verticalAlign=middle;resizable=0;points=[];autosize=1;strokeColor=#000000;fontColor=#000000;labelBackgroundColor=none;" parent="yZQsK8jCaA-zgjuyDWvM-1" vertex="1">
          <mxGeometry x="740" y="567" width="53" height="18" as="geometry" />
        </mxCell>
        <mxCell id="yZQsK8jCaA-zgjuyDWvM-52" style="edgeStyle=orthogonalEdgeStyle;rounded=0;orthogonalLoop=1;jettySize=auto;html=1;exitX=1;exitY=0.5;exitDx=0;exitDy=0;exitPerimeter=0;entryX=1;entryY=0.5;entryDx=0;entryDy=0;entryPerimeter=0;jumpStyle=arc;endArrow=none;endFill=0;" parent="yZQsK8jCaA-zgjuyDWvM-1" source="yZQsK8jCaA-zgjuyDWvM-47" target="yZQsK8jCaA-zgjuyDWvM-48" edge="1">
          <mxGeometry relative="1" as="geometry">
            <Array as="points">
              <mxPoint x="225" y="199" />
              <mxPoint x="225" y="222" />
            </Array>
          </mxGeometry>
        </mxCell>
        <mxCell id="yZQsK8jCaA-zgjuyDWvM-53" style="edgeStyle=orthogonalEdgeStyle;rounded=0;jumpStyle=arc;orthogonalLoop=1;jettySize=auto;html=1;exitX=1;exitY=0.5;exitDx=0;exitDy=0;exitPerimeter=0;entryX=0;entryY=0.5;entryDx=0;entryDy=0;entryPerimeter=0;endArrow=none;endFill=0;" parent="yZQsK8jCaA-zgjuyDWvM-1" source="yZQsK8jCaA-zgjuyDWvM-47" target="yZQsK8jCaA-zgjuyDWvM-49" edge="1">
          <mxGeometry relative="1" as="geometry">
            <Array as="points">
              <mxPoint x="225" y="199" />
              <mxPoint x="225" y="121" />
            </Array>
          </mxGeometry>
        </mxCell>
        <mxCell id="yZQsK8jCaA-zgjuyDWvM-63" style="edgeStyle=orthogonalEdgeStyle;rounded=0;jumpStyle=arc;orthogonalLoop=1;jettySize=auto;html=1;exitX=0;exitY=0.5;exitDx=0;exitDy=0;exitPerimeter=0;entryX=1;entryY=0.5;entryDx=0;entryDy=0;endArrow=none;endFill=0;" parent="yZQsK8jCaA-zgjuyDWvM-1" source="yZQsK8jCaA-zgjuyDWvM-47" target="yZQsK8jCaA-zgjuyDWvM-33" edge="1">
          <mxGeometry relative="1" as="geometry" />
        </mxCell>
        <mxCell id="yZQsK8jCaA-zgjuyDWvM-47" value="R5&lt;br&gt;&lt;div&gt;1.5k&lt;/div&gt;" style="pointerEvents=1;verticalLabelPosition=bottom;shadow=0;dashed=0;align=center;html=1;verticalAlign=top;shape=mxgraph.electrical.resistors.resistor_2;" parent="yZQsK8jCaA-zgjuyDWvM-1" vertex="1">
          <mxGeometry x="120" y="189" width="100" height="20" as="geometry" />
        </mxCell>
        <mxCell id="yZQsK8jCaA-zgjuyDWvM-55" style="edgeStyle=orthogonalEdgeStyle;rounded=0;jumpStyle=arc;orthogonalLoop=1;jettySize=auto;html=1;exitX=0;exitY=0.5;exitDx=0;exitDy=0;exitPerimeter=0;entryX=0.195;entryY=1;entryDx=0;entryDy=0;entryPerimeter=0;endArrow=none;endFill=0;" parent="yZQsK8jCaA-zgjuyDWvM-1" source="yZQsK8jCaA-zgjuyDWvM-48" target="yZQsK8jCaA-zgjuyDWvM-50" edge="1">
          <mxGeometry relative="1" as="geometry" />
        </mxCell>
        <mxCell id="yZQsK8jCaA-zgjuyDWvM-54" style="edgeStyle=orthogonalEdgeStyle;rounded=0;jumpStyle=arc;orthogonalLoop=1;jettySize=auto;html=1;exitX=1;exitY=0.5;exitDx=0;exitDy=0;exitPerimeter=0;entryX=0.195;entryY=0;entryDx=0;entryDy=0;entryPerimeter=0;endArrow=none;endFill=0;" parent="yZQsK8jCaA-zgjuyDWvM-1" source="yZQsK8jCaA-zgjuyDWvM-49" target="yZQsK8jCaA-zgjuyDWvM-50" edge="1">
          <mxGeometry relative="1" as="geometry" />
        </mxCell>
        <mxCell id="yZQsK8jCaA-zgjuyDWvM-49" value="&lt;div&gt;&lt;br&gt;&lt;/div&gt;&lt;div&gt;R4&lt;br&gt;&lt;/div&gt;&lt;div&gt;220&lt;/div&gt;" style="pointerEvents=1;verticalLabelPosition=bottom;shadow=0;dashed=0;align=center;html=1;verticalAlign=middle;shape=mxgraph.electrical.resistors.resistor_2;rotation=0;horizontal=1;" parent="yZQsK8jCaA-zgjuyDWvM-1" vertex="1">
          <mxGeometry x="230" y="111" width="100" height="20" as="geometry" />
        </mxCell>
        <mxCell id="yZQsK8jCaA-zgjuyDWvM-56" style="edgeStyle=orthogonalEdgeStyle;rounded=0;jumpStyle=arc;orthogonalLoop=1;jettySize=auto;html=1;exitX=0.8;exitY=0;exitDx=0;exitDy=0;exitPerimeter=0;endArrow=none;endFill=0;" parent="yZQsK8jCaA-zgjuyDWvM-1" source="yZQsK8jCaA-zgjuyDWvM-50" target="yZQsK8jCaA-zgjuyDWvM-41" edge="1">
          <mxGeometry relative="1" as="geometry">
            <Array as="points">
              <mxPoint x="417" y="117" />
              <mxPoint x="468" y="117" />
              <mxPoint x="468" y="267" />
              <mxPoint x="378" y="267" />
              <mxPoint x="378" y="576" />
            </Array>
          </mxGeometry>
        </mxCell>
        <mxCell id="yZQsK8jCaA-zgjuyDWvM-50" value="&lt;div&gt;OC1&lt;br&gt;&lt;/div&gt;&lt;div&gt;4n25&lt;/div&gt;" style="verticalLabelPosition=middle;shadow=0;dashed=0;align=right;html=1;verticalAlign=middle;shape=mxgraph.electrical.opto_electronics.opto-coupler;rotation=0;labelPosition=left;spacingLeft=0;spacingRight=5;" parent="yZQsK8jCaA-zgjuyDWvM-1" vertex="1">
          <mxGeometry x="338" y="139" width="99" height="60" as="geometry" />
        </mxCell>
        <mxCell id="yZQsK8jCaA-zgjuyDWvM-60" style="edgeStyle=orthogonalEdgeStyle;rounded=0;jumpStyle=arc;orthogonalLoop=1;jettySize=auto;html=1;exitX=0.5;exitY=0;exitDx=0;exitDy=0;exitPerimeter=0;entryX=0.8;entryY=1;entryDx=0;entryDy=0;entryPerimeter=0;endArrow=none;endFill=0;" parent="yZQsK8jCaA-zgjuyDWvM-1" source="yZQsK8jCaA-zgjuyDWvM-57" target="yZQsK8jCaA-zgjuyDWvM-50" edge="1">
          <mxGeometry relative="1" as="geometry">
            <Array as="points">
              <mxPoint x="357" y="222" />
              <mxPoint x="417" y="222" />
            </Array>
          </mxGeometry>
        </mxCell>
        <mxCell id="w_ViVTI42WtIYnlhA0Ng-0" style="edgeStyle=orthogonalEdgeStyle;rounded=0;orthogonalLoop=1;jettySize=auto;html=1;exitX=0.5;exitY=0;exitDx=0;exitDy=0;exitPerimeter=0;entryX=0.195;entryY=1;entryDx=0;entryDy=0;entryPerimeter=0;endArrow=none;endFill=0;" edge="1" parent="yZQsK8jCaA-zgjuyDWvM-1" source="yZQsK8jCaA-zgjuyDWvM-57" target="yZQsK8jCaA-zgjuyDWvM-50">
          <mxGeometry relative="1" as="geometry" />
        </mxCell>
        <mxCell id="yZQsK8jCaA-zgjuyDWvM-57" value="" style="pointerEvents=1;verticalLabelPosition=bottom;shadow=0;dashed=0;align=center;html=1;verticalAlign=top;shape=mxgraph.electrical.signal_sources.protective_earth;strokeColor=#000000;fontColor=#000000;labelBackgroundColor=none;" parent="yZQsK8jCaA-zgjuyDWvM-1" vertex="1">
          <mxGeometry x="345" y="229.5" width="25" height="20" as="geometry" />
        </mxCell>
        <mxCell id="yZQsK8jCaA-zgjuyDWvM-62" value="" style="group" parent="yZQsK8jCaA-zgjuyDWvM-1" vertex="1" connectable="0">
          <mxGeometry x="232" y="204" width="60" height="71" as="geometry" />
        </mxCell>
        <mxCell id="yZQsK8jCaA-zgjuyDWvM-48" value="" style="pointerEvents=1;fillColor=#000000;verticalLabelPosition=top;shadow=0;dashed=0;align=center;verticalAlign=bottom;shape=mxgraph.electrical.diodes.zener_diode_3;rotation=-180;horizontal=1;labelPosition=center;html=1;textDirection=ltr;" parent="yZQsK8jCaA-zgjuyDWvM-62" vertex="1">
          <mxGeometry width="60" height="36" as="geometry" />
        </mxCell>
        <mxCell id="yZQsK8jCaA-zgjuyDWvM-61" value="&lt;div&gt;Z1&lt;/div&gt;&lt;div&gt;3.3V&lt;br&gt;&lt;/div&gt;" style="text;html=1;align=center;verticalAlign=middle;resizable=0;points=[];autosize=1;" parent="yZQsK8jCaA-zgjuyDWvM-62" vertex="1">
          <mxGeometry x="18" y="39" width="38" height="32" as="geometry" />
        </mxCell>
      </root>
    </mxGraphModel>
  </diagram>
</mxfile>
